<?xml version="1.0" encoding="utf-8"?>
<!-- Generator: Adobe Illustrator 20.0.0, SVG Export Plug-In . SVG Version: 6.00 Build 0)  -->
<!DOCTYPE svg PUBLIC "-//W3C//DTD SVG 1.1//EN" "http://www.w3.org/Graphics/SVG/1.1/DTD/svg11.dtd">
<svg version="1.1" id="Layer_1" xmlns="http://www.w3.org/2000/svg" xmlns:xlink="http://www.w3.org/1999/xlink" x="0px" y="0px"
	 width="167.7px" height="117.3px" viewBox="0 0 167.7 117.3" style="enable-background:new 0 0 167.7 117.3;" xml:space="preserve"
	>
<style type="text/css">
	.st0{opacity:0.8;fill:#96B295;}
	.st1{opacity:0.8;fill:#F1C43B;}
</style>
<polygon class="st0" points="151.2,65.6 2,95.6 9.9,24.8 165.4,1.6 "/>
<polygon class="st1" points="32.3,99.2 160.7,114.4 153.9,78.4 20.2,66.6 "/>
<polygon class="st0" points="151.2,65.6 2,95.6 9.9,24.8 165.4,1.6 "/>
<polygon class="st1" points="32.3,99.2 160.7,114.4 153.9,78.4 20.2,66.6 "/>
<g>
	<g>
		<path d="M45.4,89.6l1.1,2.9h0.9l-0.3,1.6h-2.4l-1.5-4.2h-0.5l-0.5,2.6h1L43,94.1h-4.2l0.3-1.6h1l1.3-7.6h-1l0.3-1.6h4
			c1.8,0,3.3,0.7,3.3,2.8C47.9,88,47,89.1,45.4,89.6z M44.2,85h-0.6L43,88.2h0.6c1.3,0,1.9-0.7,1.9-2C45.5,85.4,45.1,85,44.2,85z"/>
		<path d="M56.6,86.2H55l0.2-1.1h-2.9l-0.4,2.5h3.5L55,89.5h-3.5L51,92.2h2.9l0.2-1.2h1.6l-0.5,3h-7.8l0.3-1.6h1l1.3-7.6h-1l0.3-1.6
			h7.8L56.6,86.2z"/>
		<path d="M59.6,94.1h-3.9l0.3-1.6h1l1.3-7.6h-1l0.3-1.6h4.1c2.5,0,4.4,1.2,4.4,4.2C66.1,91.7,63.9,94.1,59.6,94.1z M61.3,85.1h-0.8
			l-1.2,7.1h0.6c2.7,0,3.9-1.9,3.9-4.5C63.7,85.8,62.8,85.1,61.3,85.1z"/>
		<path d="M71.5,84.9h-1l-1.3,7.6h1l-0.3,1.6h-4.2l0.3-1.6h1l1.3-7.6h-1l0.3-1.6h4.2L71.5,84.9z"/>
		<path d="M78.9,86.3h-1.6l0.2-0.9c-0.2-0.1-0.9-0.4-1.8-0.4c-1,0-1.5,0.4-1.5,1.2c0,0.7,0.5,1,1.1,1.3l0.9,0.5c1,0.5,2,1.2,2,2.9
			c0,2.4-1.2,3.5-3.8,3.5c-1.8,0-3.1-0.6-3.7-0.9l0.4-2.4h1.6l-0.2,1c0.4,0.2,1,0.4,1.8,0.4c0.9,0,1.5-0.3,1.5-1.2
			c0-0.8-0.6-1.2-1.1-1.4l-0.8-0.4c-1-0.5-2-1.2-2-2.8c0-2.4,1.6-3.3,3.9-3.3c1.8,0,3.1,0.7,3.6,1L78.9,86.3z"/>
		<path d="M87.9,86.4h-1.6l0.2-1.1c-0.3-0.1-0.7-0.4-1.6-0.4c-2,0-2.9,2.8-2.9,4.6c0,2,0.9,2.7,1.9,2.7c0.7,0,1.2-0.2,1.5-0.3
			l0.2-1.1h1.6l-0.4,2.5c-0.5,0.3-1.5,0.8-3.2,0.8c-2.2,0-3.9-1.3-3.9-4.3c0-3.5,1.7-6.8,5.4-6.8c1.8,0,2.9,0.7,3.4,1L87.9,86.4z"/>
		<path d="M92.1,94.2c-2.6,0-4.1-1.6-4.1-4.3c0-3.5,1.8-6.8,5.6-6.8c2.6,0,4.2,1.6,4.2,4.3C97.7,90.9,95.9,94.2,92.1,94.2z
			 M93.4,84.8c-2.3,0-3.1,3-3.1,4.9c0,1.9,0.8,2.8,1.9,2.8c2.3,0,3.1-3,3.1-4.9C95.4,85.7,94.6,84.8,93.4,84.8z"/>
		<path d="M107.8,84.9H107l-4.1,9.2h-2.7l-1-9.2h-0.8l0.3-1.6h4l-0.3,1.6h-0.9l0.5,6.1l2.6-6.1h-0.9l0.3-1.6h4L107.8,84.9z"/>
		<path d="M115.7,86.2h-1.6l0.2-1.1h-2.9l-0.4,2.5h3.5l-0.3,1.9h-3.5l-0.5,2.7h2.9l0.2-1.2h1.6l-0.5,3h-7.8l0.3-1.6h1l1.3-7.6h-1
			l0.3-1.6h7.8L115.7,86.2z"/>
		<path d="M121.5,89.6l1.1,2.9h0.9l-0.3,1.6h-2.4l-1.5-4.2h-0.5l-0.5,2.6h1l-0.3,1.6h-4.2l0.3-1.6h1l1.3-7.6h-1l0.3-1.6h4
			c1.8,0,3.3,0.7,3.3,2.8C124,88,123,89.1,121.5,89.6z M120.2,85h-0.6l-0.6,3.3h0.6c1.3,0,1.9-0.7,1.9-2
			C121.6,85.4,121.1,85,120.2,85z"/>
		<path d="M132.6,86.2H131l0.2-1.1h-2.9l-0.4,2.5h3.5l-0.3,1.9h-3.5l-0.5,2.7h2.9l0.2-1.2h1.6l-0.5,3h-7.8l0.3-1.6h1l1.3-7.6h-1
			l0.3-1.6h7.8L132.6,86.2z"/>
		<path d="M135.6,94.1h-3.9l0.3-1.6h1l1.3-7.6h-1l0.3-1.6h4.1c2.5,0,4.4,1.2,4.4,4.2C142.2,91.7,139.9,94.1,135.6,94.1z M137.3,85.1
			h-0.8l-1.2,7.1h0.6c2.7,0,3.9-1.9,3.9-4.5C139.8,85.8,138.8,85.1,137.3,85.1z"/>
	</g>
</g>
<g>
	<g>
		<path d="M45.6,38h-5.4l0.6-3.6c-0.9-0.5-2.5-1.2-5.4-1.2c-6.7,0-9.7,9.2-9.7,15.3c0,6.6,3,9,6.2,9c2.4,0,4.1-0.6,5-1.1l0.6-3.5
			h5.4l-1.4,8.3c-1.6,0.9-5,2.6-10.7,2.6c-7.2,0-12.9-4.4-12.9-14.2c0-11.6,5.5-22.6,17.9-22.6c6.1,0,9.8,2.4,11.2,3.3L45.6,38z"/>
		<path d="M80.8,32.8h-3.2l-3.3,18.8c-1.7,9.5-7.2,12.2-14.5,12.2c-7.1,0-12.8-3.6-11-13.2l3.1-17.7h-3.2l1-5.4h13.9l-1,5.4h-3.2
			L56.1,51c-0.8,4.4,0.6,6.6,4.2,6.6c3.6,0,5.7-2.1,6.5-6.5l3.2-18.2h-3.2l1-5.4h13.9L80.8,32.8z"/>
		<path d="M99.9,44.9c2.2,0.5,5.2,2.3,5.2,6.9c0,9-6.1,11.5-14.3,11.5H76.5l1-5.4h3.2l4.4-25h-3.2l1-5.4h14.3
			c5.9,0,10.1,2.6,10.1,8.2C107.2,40.9,104.6,43.8,99.9,44.9z M92.5,47.7h-2.5l-1.7,9.8h2.5c4.4,0,6.6-1.6,6.6-5.5
			C97.3,49,95.5,47.7,92.5,47.7z M95,33.2h-2.5L91,42h2.5c3.9,0,5.7-1.8,5.7-5.3C99.2,34.5,97.9,33.2,95,33.2z"/>
		<path d="M135.9,63.2h-8.6l-0.6-8.7H117l-1.4,3.3h2.6l-1,5.4h-13l1-5.4h2.6l11.5-25H116l1-5.4h14l3.3,30.4h2.6L135.9,63.2z
			 M125.2,35l-5.8,13.6h6.8L125.2,35z"/>
	</g>
</g>
</svg>
